<svg width="32" height="32" viewBox="0 0 32 32" fill="none" xmlns="http://www.w3.org/2000/svg">
<rect width="32" height="32" fill="white"/>
<path d="M14.8072 12.6V19.752C14.8072 20.176 14.7192 20.492 14.5432 20.7C14.3672 20.9 14.0952 21 13.7272 21H13.1152L9.16722 13.896V21H8.33922V12.6H9.37122L13.5712 20.244H13.6552C13.7752 20.244 13.8592 20.2 13.9072 20.112C13.9552 20.024 13.9792 19.868 13.9792 19.644V12.6H14.8072Z" fill="black"/>
<path d="M24.0757 11.1299C24.1475 10.7923 23.9319 10.4604 23.5943 10.3887L18.0922 9.21915C17.7546 9.14739 17.4227 9.36292 17.3509 9.70055C17.2792 10.0382 17.4947 10.3701 17.8323 10.4418L22.7231 11.4814L21.6835 16.3721C21.6117 16.7098 21.8273 17.0417 22.1649 17.1134C22.5025 17.1852 22.8344 16.9697 22.9062 16.632L24.0757 11.1299ZM23.4644 11L23.124 10.4758L7.65964 20.5185L8.00003 21.0426L8.34043 21.5668L23.8048 11.5242L23.4644 11Z" fill="white"/>
<g filter="url(#filter0_d_321_2)">
<path d="M23.9534 11.104C24.0108 10.8338 23.8384 10.5683 23.5683 10.5109L19.1666 9.57532C18.8965 9.51791 18.631 9.69033 18.5736 9.96044C18.5162 10.2305 18.6886 10.4961 18.9587 10.5535L22.8713 11.3851L22.0397 15.2977C21.9823 15.5678 22.1547 15.8333 22.4248 15.8907C22.6949 15.9482 22.9604 15.7757 23.0178 15.5056L23.9534 11.104ZM23.4644 11L23.192 10.5807L7.72772 20.6233L8.00003 21.0426L8.27235 21.462L23.7367 11.4193L23.4644 11Z" fill="#00FAD2"/>
</g>
<mask id="path-4-outside-1_321_2" maskUnits="userSpaceOnUse" x="16" y="12" width="8" height="10" fill="black">
<rect fill="white" x="16" y="12" width="8" height="10"/>
<path d="M19.963 21.132C19.227 21.132 18.619 21.024 18.139 20.808C17.667 20.584 17.231 20.208 16.831 19.68L17.419 19.164C17.763 19.628 18.119 19.956 18.487 20.148C18.863 20.34 19.339 20.436 19.915 20.436C20.667 20.436 21.247 20.292 21.655 20.004C22.071 19.716 22.279 19.312 22.279 18.792C22.279 18.464 22.203 18.204 22.051 18.012C21.899 17.82 21.631 17.656 21.247 17.52C20.863 17.376 20.295 17.228 19.543 17.076C18.719 16.916 18.107 16.652 17.707 16.284C17.315 15.916 17.119 15.424 17.119 14.808C17.119 14.08 17.379 13.508 17.899 13.092C18.427 12.676 19.151 12.468 20.071 12.468C20.727 12.468 21.295 12.584 21.775 12.816C22.255 13.04 22.627 13.372 22.891 13.812L22.303 14.292C22.055 13.924 21.739 13.644 21.355 13.452C20.979 13.26 20.543 13.164 20.047 13.164C19.415 13.164 18.911 13.308 18.535 13.596C18.167 13.884 17.983 14.272 17.983 14.76C17.983 15.192 18.147 15.536 18.475 15.792C18.803 16.04 19.343 16.24 20.095 16.392C20.887 16.552 21.499 16.732 21.931 16.932C22.371 17.132 22.683 17.376 22.867 17.664C23.051 17.944 23.143 18.312 23.143 18.768C23.143 19.536 22.871 20.124 22.327 20.532C21.783 20.932 20.995 21.132 19.963 21.132Z"/>
</mask>
<path d="M19.963 21.132C19.227 21.132 18.619 21.024 18.139 20.808C17.667 20.584 17.231 20.208 16.831 19.68L17.419 19.164C17.763 19.628 18.119 19.956 18.487 20.148C18.863 20.34 19.339 20.436 19.915 20.436C20.667 20.436 21.247 20.292 21.655 20.004C22.071 19.716 22.279 19.312 22.279 18.792C22.279 18.464 22.203 18.204 22.051 18.012C21.899 17.82 21.631 17.656 21.247 17.52C20.863 17.376 20.295 17.228 19.543 17.076C18.719 16.916 18.107 16.652 17.707 16.284C17.315 15.916 17.119 15.424 17.119 14.808C17.119 14.08 17.379 13.508 17.899 13.092C18.427 12.676 19.151 12.468 20.071 12.468C20.727 12.468 21.295 12.584 21.775 12.816C22.255 13.04 22.627 13.372 22.891 13.812L22.303 14.292C22.055 13.924 21.739 13.644 21.355 13.452C20.979 13.26 20.543 13.164 20.047 13.164C19.415 13.164 18.911 13.308 18.535 13.596C18.167 13.884 17.983 14.272 17.983 14.76C17.983 15.192 18.147 15.536 18.475 15.792C18.803 16.04 19.343 16.24 20.095 16.392C20.887 16.552 21.499 16.732 21.931 16.932C22.371 17.132 22.683 17.376 22.867 17.664C23.051 17.944 23.143 18.312 23.143 18.768C23.143 19.536 22.871 20.124 22.327 20.532C21.783 20.932 20.995 21.132 19.963 21.132Z" fill="black"/>
<path d="M18.139 20.808L18.0747 20.9435L18.0775 20.9448L18.139 20.808ZM16.831 19.68L16.7321 19.5673L16.6272 19.6593L16.7115 19.7706L16.831 19.68ZM17.419 19.164L17.5395 19.0747L17.4425 18.9438L17.3201 19.0513L17.419 19.164ZM18.487 20.148L18.4176 20.281L18.4188 20.2816L18.487 20.148ZM21.655 20.004L21.5696 19.8807L21.5685 19.8815L21.655 20.004ZM22.051 18.012L22.1686 17.9189L22.1686 17.9189L22.051 18.012ZM21.247 17.52L21.1943 17.6605L21.1969 17.6614L21.247 17.52ZM19.543 17.076L19.5727 16.929L19.5716 16.9287L19.543 17.076ZM17.707 16.284L17.6043 16.3934L17.6055 16.3944L17.707 16.284ZM17.899 13.092L17.8062 12.9742L17.8053 12.9749L17.899 13.092ZM21.775 12.816L21.7097 12.9511L21.7116 12.9519L21.775 12.816ZM22.891 13.812L22.9859 13.9282L23.0864 13.8461L23.0196 13.7348L22.891 13.812ZM22.303 14.292L22.1786 14.3758L22.2705 14.5122L22.3979 14.4082L22.303 14.292ZM21.355 13.452L21.2868 13.5856L21.2879 13.5862L21.355 13.452ZM18.535 13.596L18.4438 13.4769L18.4426 13.4779L18.535 13.596ZM18.475 15.792L18.3827 15.9103L18.3845 15.9116L18.475 15.792ZM20.095 16.392L20.0653 16.539L20.0653 16.539L20.095 16.392ZM21.931 16.932L21.868 17.0681L21.8689 17.0686L21.931 16.932ZM22.867 17.664L22.7406 17.7448L22.7417 17.7464L22.867 17.664ZM22.327 20.532L22.4159 20.6529L22.417 20.652L22.327 20.532ZM19.963 21.132V20.982C19.2403 20.982 18.6551 20.8758 18.2006 20.6712L18.139 20.808L18.0775 20.9448C18.5829 21.1722 19.2137 21.282 19.963 21.282V21.132ZM18.139 20.808L18.2033 20.6725C17.7581 20.4612 17.3398 20.1032 16.9506 19.5894L16.831 19.68L16.7115 19.7706C17.1222 20.3128 17.5759 20.7068 18.0747 20.9435L18.139 20.808ZM16.831 19.68L16.93 19.7927L17.518 19.2767L17.419 19.164L17.3201 19.0513L16.7321 19.5673L16.831 19.68ZM17.419 19.164L17.2985 19.2533C17.6511 19.7289 18.0232 20.0752 18.4176 20.281L18.487 20.148L18.5564 20.015C18.2148 19.8368 17.875 19.5271 17.5395 19.0747L17.419 19.164ZM18.487 20.148L18.4188 20.2816C18.8222 20.4876 19.3235 20.586 19.915 20.586V20.436V20.286C19.3545 20.286 18.9038 20.1924 18.5552 20.0144L18.487 20.148ZM19.915 20.436V20.586C20.6832 20.586 21.2984 20.4394 21.7415 20.1265L21.655 20.004L21.5685 19.8815C21.1957 20.1446 20.6508 20.286 19.915 20.286V20.436ZM21.655 20.004L21.7404 20.1273C22.1982 19.8104 22.429 19.3596 22.429 18.792H22.279H22.129C22.129 19.2644 21.9438 19.6216 21.5696 19.8807L21.655 20.004ZM22.279 18.792H22.429C22.429 18.4417 22.3477 18.1452 22.1686 17.9189L22.051 18.012L21.9334 18.1051C22.0583 18.2628 22.129 18.4863 22.129 18.792H22.279ZM22.051 18.012L22.1686 17.9189C21.991 17.6945 21.6919 17.5184 21.2971 17.3786L21.247 17.52L21.1969 17.6614C21.5701 17.7936 21.807 17.9455 21.9334 18.1051L22.051 18.012ZM21.247 17.52L21.2997 17.3796C20.9044 17.2313 20.3271 17.0814 19.5727 16.929L19.543 17.076L19.5133 17.223C20.263 17.3746 20.8217 17.5207 21.1943 17.6604L21.247 17.52ZM19.543 17.076L19.5716 16.9287C18.7612 16.7714 18.1799 16.5152 17.8086 16.1736L17.707 16.284L17.6055 16.3944C18.0342 16.7888 18.6768 17.0606 19.5144 17.2232L19.543 17.076ZM17.707 16.284L17.8097 16.1746C17.4524 15.8392 17.269 15.3892 17.269 14.808H17.119H16.969C16.969 15.4588 17.1776 15.9928 17.6044 16.3934L17.707 16.284ZM17.119 14.808H17.269C17.269 14.1207 17.5119 13.5938 17.9927 13.2091L17.899 13.092L17.8053 12.9749C17.2461 13.4222 16.969 14.0393 16.969 14.808H17.119ZM17.899 13.092L17.9918 13.2098C18.4851 12.8212 19.1724 12.618 20.071 12.618V12.468V12.318C19.1296 12.318 18.3689 12.5308 17.8062 12.9742L17.899 13.092ZM20.071 12.468V12.618C20.7095 12.618 21.2542 12.7309 21.7097 12.9511L21.775 12.816L21.8403 12.6809C21.3358 12.4371 20.7445 12.318 20.071 12.318V12.468ZM21.775 12.816L21.7116 12.9519C22.1654 13.1637 22.5143 13.4757 22.7624 13.8892L22.891 13.812L23.0196 13.7348C22.7397 13.2683 22.3446 12.9163 21.8384 12.6801L21.775 12.816ZM22.891 13.812L22.7962 13.6958L22.2082 14.1758L22.303 14.292L22.3979 14.4082L22.9859 13.9282L22.891 13.812ZM22.303 14.292L22.4274 14.2082C22.1655 13.8195 21.83 13.5218 21.4221 13.3178L21.355 13.452L21.2879 13.5862C21.648 13.7662 21.9446 14.0285 22.1786 14.3758L22.303 14.292ZM21.355 13.452L21.4232 13.3184C21.0227 13.1139 20.5626 13.014 20.047 13.014V13.164V13.314C20.5234 13.314 20.9353 13.4061 21.2868 13.5856L21.355 13.452ZM20.047 13.164V13.014C19.393 13.014 18.8535 13.1631 18.4438 13.4769L18.535 13.596L18.6262 13.7151C18.9685 13.4529 19.437 13.314 20.047 13.314V13.164ZM18.535 13.596L18.4426 13.4779C18.0364 13.7957 17.833 14.2282 17.833 14.76H17.983H18.133C18.133 14.3158 18.2976 13.9723 18.6275 13.7141L18.535 13.596ZM17.983 14.76H17.833C17.833 15.2361 18.0167 15.6246 18.3827 15.9102L18.475 15.792L18.5673 15.6738C18.2773 15.4474 18.133 15.1479 18.133 14.76H17.983ZM18.475 15.792L18.3845 15.9116C18.74 16.1804 19.3071 16.3858 20.0653 16.539L20.095 16.392L20.1247 16.245C19.3789 16.0942 18.866 15.8996 18.5655 15.6724L18.475 15.792ZM20.095 16.392L20.0653 16.539C20.8526 16.6981 21.4515 16.8753 21.868 17.0681L21.931 16.932L21.994 16.7959C21.5466 16.5887 20.9214 16.4059 20.1247 16.245L20.095 16.392ZM21.931 16.932L21.8689 17.0686C22.293 17.2613 22.5774 17.4893 22.7406 17.7448L22.867 17.664L22.9934 17.5832C22.7886 17.2627 22.449 17.0027 21.9931 16.7954L21.931 16.932ZM22.867 17.664L22.7417 17.7464C22.9047 17.9945 22.993 18.331 22.993 18.768H23.143H23.293C23.293 18.293 23.1973 17.8935 22.9924 17.5816L22.867 17.664ZM23.143 18.768H22.993C22.993 19.4958 22.738 20.0363 22.237 20.412L22.327 20.532L22.417 20.652C23.0041 20.2117 23.293 19.5762 23.293 18.768H23.143ZM22.327 20.532L22.2382 20.4112C21.7303 20.7846 20.9789 20.982 19.963 20.982V21.132V21.282C21.0111 21.282 21.8357 21.0794 22.4159 20.6528L22.327 20.532Z" fill="white" mask="url(#path-4-outside-1_321_2)"/>
<defs>
<filter id="filter0_d_321_2" x="3.72766" y="9.56421" width="24.2368" height="19.8977" filterUnits="userSpaceOnUse" color-interpolation-filters="sRGB">
<feFlood flood-opacity="0" result="BackgroundImageFix"/>
<feColorMatrix in="SourceAlpha" type="matrix" values="0 0 0 0 0 0 0 0 0 0 0 0 0 0 0 0 0 0 127 0" result="hardAlpha"/>
<feOffset dy="4"/>
<feGaussianBlur stdDeviation="2"/>
<feComposite in2="hardAlpha" operator="out"/>
<feColorMatrix type="matrix" values="0 0 0 0 0 0 0 0 0 0 0 0 0 0 0 0 0 0 0.25 0"/>
<feBlend mode="normal" in2="BackgroundImageFix" result="effect1_dropShadow_321_2"/>
<feBlend mode="normal" in="SourceGraphic" in2="effect1_dropShadow_321_2" result="shape"/>
</filter>
</defs>
</svg>
